<?xml version="1.0" encoding="UTF-8"?>
<!DOCTYPE svg PUBLIC "-//W3C//DTD SVG 1.1//EN" "http://www.w3.org/Graphics/SVG/1.1/DTD/svg11.dtd">
<svg xmlns="http://www.w3.org/2000/svg" version="1.1" width="500px" height="100px" style="shape-rendering:geometricPrecision; text-rendering:geometricPrecision; image-rendering:optimizeQuality; fill-rule:evenodd; clip-rule:evenodd" xmlns:xlink="http://www.w3.org/1999/xlink">
<g><path style="opacity:0.004" fill="#000000" d="M 43.5,1.5 C 44.8333,2.16667 44.8333,2.16667 43.5,1.5 Z"/></g>
<g><path style="opacity:0.004" fill="#000000" d="M 306.5,1.5 C 307.833,2.16667 307.833,2.16667 306.5,1.5 Z"/></g>
<g><path style="opacity:0.004" fill="#000000" d="M 460.5,1.5 C 461.833,2.16667 461.833,2.16667 460.5,1.5 Z"/></g>
<g><path style="opacity:0.004" fill="#000000" d="M 376.5,3.5 C 377.833,4.16667 377.833,4.16667 376.5,3.5 Z"/></g>
<g><path style="opacity:0.004" fill="#000000" d="M 92.5,5.5 C 93.8333,6.16667 93.8333,6.16667 92.5,5.5 Z"/></g>
<g><path style="opacity:0.004" fill="#000000" d="M 175.5,6.5 C 176.833,7.16667 176.833,7.16667 175.5,6.5 Z"/></g>
<g><path style="opacity:0.004" fill="#000000" d="M 285.5,6.5 C 286.833,7.16667 286.833,7.16667 285.5,6.5 Z"/></g>
<g><path style="opacity:0.004" fill="#000000" d="M 193.5,7.5 C 194.833,8.16667 194.833,8.16667 193.5,7.5 Z"/></g>
<g><path style="opacity:0.004" fill="#000000" d="M 125.5,8.5 C 126.833,9.16667 126.833,9.16667 125.5,8.5 Z"/></g>
<g><path style="opacity:0.004" fill="#000000" d="M 230.5,9.5 C 231.833,10.1667 231.833,10.1667 230.5,9.5 Z"/></g>
<g><path style="opacity:0.004" fill="#000000" d="M 446.5,9.5 C 447.833,10.1667 447.833,10.1667 446.5,9.5 Z"/></g>
<g><path style="opacity:0.004" fill="#000000" d="M 305.5,10.5 C 306.833,11.1667 306.833,11.1667 305.5,10.5 Z"/></g>
<g><path style="opacity:1" fill="#1fda98" d="M 86.5,7.5 C 84.8828,6.962 83.2161,6.62867 81.5,6.5C 80.3915,5.71003 79.0581,5.21003 77.5,5C 68.8333,4.33333 60.1667,4.33333 51.5,5C 50.0001,6.11453 48.3334,6.94787 46.5,7.5C 45.2528,9.00638 45.2528,10.5064 46.5,12C 44.1861,13.3983 41.8528,13.565 39.5,12.5C 34.1667,14.5 30.5,18.1667 28.5,23.5C 27.675,24.3857 26.675,24.719 25.5,24.5C 28.5486,18.6126 32.8819,13.7793 38.5,10C 53.1333,0.704683 68.7999,-0.62865 85.5,6C 86.056,6.38258 86.3893,6.88258 86.5,7.5 Z"/></g>
<g><path style="opacity:1" fill="#02ec9d" d="M 81.5,6.5 C 83.5397,7.72223 83.5397,9.3889 81.5,11.5C 80.914,11.2907 80.414,10.9574 80,10.5C 75.0398,12.3717 69.8732,13.8717 64.5,15C 62.393,16.2635 61.393,18.0968 61.5,20.5C 58.9339,20.3444 56.4339,20.6777 54,21.5C 52.3745,20.7113 50.8745,19.7113 49.5,18.5C 48.7084,19.6998 48.7084,21.0331 49.5,22.5C 41.0811,21.2499 37.0811,24.9165 37.5,33.5C 36.4763,32.1468 35.143,31.4802 33.5,31.5C 33.2714,33.433 32.4381,35.0997 31,36.5C 29.6766,33.9414 27.8433,33.2747 25.5,34.5C 27.0396,35.5321 27.5396,36.8654 27,38.5C 24.7616,37.2624 23.2616,35.4291 22.5,33C 23.3666,30.1042 24.3666,27.2709 25.5,24.5C 26.675,24.719 27.675,24.3857 28.5,23.5C 30.5,18.1667 34.1667,14.5 39.5,12.5C 41.8528,13.565 44.1861,13.3983 46.5,12C 45.2528,10.5064 45.2528,9.00638 46.5,7.5C 48.3334,6.94787 50.0001,6.11453 51.5,5C 60.1667,4.33333 68.8333,4.33333 77.5,5C 79.0581,5.21003 80.3915,5.71003 81.5,6.5 Z"/></g>
<g><path style="opacity:0.004" fill="#000000" d="M 252.5,13.5 C 253.833,14.1667 253.833,14.1667 252.5,13.5 Z"/></g>
<g><path style="opacity:0.004" fill="#000000" d="M 423.5,13.5 C 424.833,14.1667 424.833,14.1667 423.5,13.5 Z"/></g>
<g><path style="opacity:1" fill="#03e99c" d="M 81.5,6.5 C 83.2161,6.62867 84.8828,6.962 86.5,7.5C 87.3149,8.83663 88.4815,9.83663 90,10.5C 90.4828,11.448 90.6495,12.448 90.5,13.5C 92.6547,13.372 94.6547,13.872 96.5,15C 97.8333,16.3333 97.8333,17.6667 96.5,19C 100.364,20.55 100.364,22.05 96.5,23.5C 95.4147,25.8773 94.2481,28.2106 93,30.5C 92.5045,28.5273 92.3379,26.5273 92.5,24.5C 91.5,24.5 90.5,24.5 89.5,24.5C 76.3398,23.4792 63.0065,22.8126 49.5,22.5C 48.7084,21.0331 48.7084,19.6998 49.5,18.5C 50.8745,19.7113 52.3745,20.7113 54,21.5C 56.4339,20.6777 58.9339,20.3444 61.5,20.5C 61.393,18.0968 62.393,16.2635 64.5,15C 69.8732,13.8717 75.0398,12.3717 80,10.5C 80.414,10.9574 80.914,11.2907 81.5,11.5C 83.5397,9.3889 83.5397,7.72223 81.5,6.5 Z"/></g>
<g><path style="opacity:0.004" fill="#000000" d="M 353.5,15.5 C 354.833,16.1667 354.833,16.1667 353.5,15.5 Z"/></g>
<g><path style="opacity:0.004" fill="#000000" d="M 193.5,16.5 C 194.833,17.1667 194.833,17.1667 193.5,16.5 Z"/></g>
<g><path style="opacity:0.004" fill="#000000" d="M 186.5,17.5 C 187.833,18.1667 187.833,18.1667 186.5,17.5 Z"/></g>
<g><path style="opacity:0.004" fill="#000000" d="M 323.5,21.5 C 324.833,22.1667 324.833,22.1667 323.5,21.5 Z"/></g>
<g><path style="opacity:0.004" fill="#000000" d="M 399.5,23.5 C 400.833,24.1667 400.833,24.1667 399.5,23.5 Z"/></g>
<g><path style="opacity:0.004" fill="#000000" d="M 218.5,24.5 C 219.833,25.1667 219.833,25.1667 218.5,24.5 Z"/></g>
<g><path style="opacity:1" fill="#cffffa" d="M 89.5,24.5 C 90.812,32.2653 90.812,39.9319 89.5,47.5C 89.5,47.8333 89.5,48.1667 89.5,48.5C 82.1591,48.6663 74.8258,48.4997 67.5,48C 66.5192,40.5871 66.1858,33.0871 66.5,25.5C 74.0804,24.5343 81.747,24.201 89.5,24.5 Z"/></g>
<g><path style="opacity:0.004" fill="#000000" d="M 472.5,26.5 C 473.833,27.1667 473.833,27.1667 472.5,26.5 Z"/></g>
<g><path style="opacity:0.004" fill="#000000" d="M 16.5,28.5 C 17.8333,29.1667 17.8333,29.1667 16.5,28.5 Z"/></g>
<g><path style="opacity:0.004" fill="#000000" d="M 206.5,28.5 C 207.833,29.1667 207.833,29.1667 206.5,28.5 Z"/></g>
<g><path style="opacity:0.004" fill="#000000" d="M 139.5,30.5 C 140.833,31.1667 140.833,31.1667 139.5,30.5 Z"/></g>
<g><path style="opacity:0.004" fill="#000000" d="M 178.5,30.5 C 179.833,31.1667 179.833,31.1667 178.5,30.5 Z"/></g>
<g><path style="opacity:0.004" fill="#000000" d="M 8.5,31.5 C 9.83333,32.1667 9.83333,32.1667 8.5,31.5 Z"/></g>
<g><path style="opacity:0.004" fill="#000000" d="M 302.5,31.5 C 303.833,32.1667 303.833,32.1667 302.5,31.5 Z"/></g>
<g><path style="opacity:0.904" fill="#fcfcfc" d="M 185.5,33.5 C 187.5,33.5 189.5,33.5 191.5,33.5C 191.5,43.5 191.5,53.5 191.5,63.5C 189.409,63.6816 187.409,63.3482 185.5,62.5C 179.547,65.8883 175.047,64.555 172,58.5C 170.932,53.2317 171.599,48.2317 174,43.5C 176.971,41.3662 180.138,41.0328 183.5,42.5C 185.27,39.8066 185.937,36.8066 185.5,33.5 Z M 179.5,47.5 C 181.766,47.1412 183.599,47.8078 185,49.5C 185.667,51.8333 185.667,54.1667 185,56.5C 180.681,59.7496 178.181,58.5829 177.5,53C 178.077,51.0999 178.744,49.2666 179.5,47.5 Z"/></g>
<g><path style="opacity:0.852" fill="#fdfdfd" d="M 356.5,33.5 C 358.833,33.5 361.167,33.5 363.5,33.5C 363.5,43.5 363.5,53.5 363.5,63.5C 361.08,63.7076 358.747,63.3742 356.5,62.5C 349.541,66.1049 345.041,64.1049 343,56.5C 341.156,45.3497 345.656,40.5164 356.5,42C 356.296,39.3787 356.296,36.5453 356.5,33.5 Z M 351.5,47.5 C 355.522,47.0184 357.522,48.8518 357.5,53C 356.881,58.6005 354.381,59.7672 350,56.5C 349.207,53.2587 349.707,50.2587 351.5,47.5 Z"/></g>
<g><path style="opacity:1" fill="#88d6bb" d="M 70.5,43.5 C 70.5,38.8333 70.5,34.1667 70.5,29.5C 75.3158,28.3503 80.3158,28.1837 85.5,29C 86.4692,33.7367 86.8025,38.57 86.5,43.5C 81.1667,43.5 75.8333,43.5 70.5,43.5 Z"/></g>
<g><path style="opacity:0.004" fill="#000000" d="M 161.5,34.5 C 162.833,35.1667 162.833,35.1667 161.5,34.5 Z"/></g>
<g><path style="opacity:1" fill="#0bda98" d="M 86.5,7.5 C 97.2657,11.9313 104.599,19.598 108.5,30.5C 110.647,39.7329 110.98,49.0663 109.5,58.5C 107.302,60.8601 104.635,62.1934 101.5,62.5C 100.996,66.3354 99.9965,66.3354 98.5,62.5C 95.322,61.6561 92.6554,59.9895 90.5,57.5C 90.1667,57.8333 89.8333,58.1667 89.5,58.5C 93.7805,63.1055 92.7805,65.2722 86.5,65C 85.2459,62.6628 83.9125,60.4961 82.5,58.5C 82.1667,58.5 81.8333,58.5 81.5,58.5C 83.5078,56.9174 85.8411,55.9174 88.5,55.5C 90.69,54.2524 91.0234,52.5857 89.5,50.5C 89.5,49.8333 89.5,49.1667 89.5,48.5C 89.5,48.1667 89.5,47.8333 89.5,47.5C 90.812,39.9319 90.812,32.2653 89.5,24.5C 90.5,24.5 91.5,24.5 92.5,24.5C 92.3379,26.5273 92.5045,28.5273 93,30.5C 94.2481,28.2106 95.4147,25.8773 96.5,23.5C 100.364,22.05 100.364,20.55 96.5,19C 97.8333,17.6667 97.8333,16.3333 96.5,15C 94.6547,13.872 92.6547,13.372 90.5,13.5C 90.6495,12.448 90.4828,11.448 90,10.5C 88.4815,9.83663 87.3149,8.83663 86.5,7.5 Z"/></g>
<g><path style="opacity:0.958" fill="#fbfbfb" d="M 130.5,35.5 C 134.514,35.3345 138.514,35.5012 142.5,36C 144.967,38.0433 144.967,40.2099 142.5,42.5C 134.483,38.6728 130.483,41.1728 130.5,50C 130.026,53.2923 131.026,55.9589 133.5,58C 137.111,58.13 140.611,58.2966 144,58.5C 143.981,60.1075 143.815,61.7741 143.5,63.5C 127.153,66.6522 120.653,59.9855 124,43.5C 125.305,40.0386 127.471,37.372 130.5,35.5 Z"/></g>
<g><path style="opacity:0.912" fill="#fdfcfd" d="M 220.5,35.5 C 225.511,35.3341 230.511,35.5007 235.5,36C 240.145,38.0246 241.645,41.5246 240,46.5C 239.5,47.6667 238.667,48.5 237.5,49C 241.696,51.9811 242.529,55.8144 240,60.5C 239.097,61.7014 237.931,62.5348 236.5,63C 231.177,63.4994 225.844,63.666 220.5,63.5C 220.5,54.1667 220.5,44.8333 220.5,35.5 Z M 226.5,41.5 C 228.833,41.5 231.167,41.5 233.5,41.5C 233.714,43.1439 233.38,44.6439 232.5,46C 230.527,46.4955 228.527,46.6621 226.5,46.5C 226.5,44.8333 226.5,43.1667 226.5,41.5 Z M 233.5,53.5 C 234.791,54.5417 234.791,55.7083 233.5,57C 231.323,58.2022 228.989,58.7022 226.5,58.5C 226.92,56.326 226.92,54.326 226.5,52.5C 229.066,51.394 231.4,51.7273 233.5,53.5 Z"/></g>
<g><path style="opacity:0.893" fill="#fcfcfc" d="M 268.5,35.5 C 271.187,35.3359 273.854,35.5026 276.5,36C 279.874,41.9162 283.374,47.7495 287,53.5C 287.807,47.5837 287.641,41.7504 286.5,36C 288.81,35.5034 291.143,35.3367 293.5,35.5C 293.5,44.8333 293.5,54.1667 293.5,63.5C 290.428,63.8174 287.428,63.4841 284.5,62.5C 281.333,56.8333 278.167,51.1667 275,45.5C 274.501,51.4908 274.334,57.4908 274.5,63.5C 272.5,63.5 270.5,63.5 268.5,63.5C 268.5,54.1667 268.5,44.8333 268.5,35.5 Z"/></g>
<g><path style="opacity:0.004" fill="#000000" d="M 373.5,35.5 C 374.833,36.1667 374.833,36.1667 373.5,35.5 Z"/></g>
<g><path style="opacity:0.004" fill="#000000" d="M 313.5,36.5 C 314.833,37.1667 314.833,37.1667 313.5,36.5 Z"/></g>
<g><path style="opacity:1" fill="#c8fff7" d="M 64.5,25.5 C 64.6663,32.8409 64.4997,40.1742 64,47.5C 56.5871,48.4808 49.0871,48.8142 41.5,48.5C 40.188,40.7347 40.188,33.0681 41.5,25.5C 49.0681,24.188 56.7347,24.188 64.5,25.5 Z"/></g>
<g><path style="opacity:1" fill="#f0fefe" d="M 41.5,25.5 C 48.5,25.5 55.5,25.5 62.5,25.5C 62.5,32.8333 62.5,40.1667 62.5,47.5C 55.5778,47.8122 48.7445,47.4788 42,46.5C 41.5004,39.5079 41.3337,32.5079 41.5,25.5 Z"/></g>
<g><path style="opacity:1" fill="#92dbc2" d="M 45.5,28.5 C 50.5,28.5 55.5,28.5 60.5,28.5C 60.6659,33.5111 60.4993,38.5111 60,43.5C 54.9283,44.4714 49.7616,44.8047 44.5,44.5C 44.2175,39.0735 44.5509,33.7401 45.5,28.5 Z"/></g>
<g><path style="opacity:1" fill="#e9fffe" d="M 46.5,30.5 C 50.1817,30.3347 53.8484,30.5014 57.5,31C 61.5,41.3333 58.1667,45 47.5,42C 46.5399,38.27 46.2065,34.4367 46.5,30.5 Z"/></g>
<g><path style="opacity:1" fill="#6bd4af" d="M 50.5,34.5 C 51.8333,34.5 53.1667,34.5 54.5,34.5C 54.5,35.8333 54.5,37.1667 54.5,38.5C 53.1667,38.5 51.8333,38.5 50.5,38.5C 50.5,37.1667 50.5,35.8333 50.5,34.5 Z"/></g>
<g><path style="opacity:1" fill="#e3fffd" d="M 73.5,30.5 C 77.1064,30.2108 80.6064,30.5442 84,31.5C 87,42.1667 83.3333,45.5 73,41.5C 72.2446,37.7446 72.4113,34.0779 73.5,30.5 Z"/></g>
<g><path style="opacity:0.886" fill="#fcfcfc" d="M 154.5,41.5 C 165.762,40.9928 170.262,46.3262 168,57.5C 163.717,64.6911 157.884,66.1911 150.5,62C 147.669,57.5592 146.836,52.7259 148,47.5C 149.436,44.5581 151.603,42.5581 154.5,41.5 Z M 155.5,47.5 C 157.467,47.2606 159.301,47.5939 161,48.5C 161.667,51.1667 161.667,53.8333 161,56.5C 159.33,58.6983 157.33,59.0317 155,57.5C 152.906,54.035 153.073,50.7016 155.5,47.5 Z"/></g>
<g><path style="opacity:0.839" fill="#fcfcfc" d="M 212.5,56.5 C 214.344,58.2789 215.01,60.6122 214.5,63.5C 201.691,67.1652 195.524,62.4986 196,49.5C 198.148,43.0051 202.648,40.5051 209.5,42C 211.329,42.2735 212.829,43.1068 214,44.5C 215.461,47.6786 216.295,51.0119 216.5,54.5C 214.143,54.3367 211.81,54.5034 209.5,55C 210.737,55.2321 211.737,55.7321 212.5,56.5 Z M 204.5,46.5 C 206.912,46.244 208.579,47.244 209.5,49.5C 207.167,50.8333 204.833,50.8333 202.5,49.5C 203.193,48.4822 203.859,47.4822 204.5,46.5 Z M 212.5,56.5 C 208.941,60.7699 205.608,60.4365 202.5,55.5C 203.167,55.1667 203.833,54.8333 204.5,54.5C 207.022,55.762 209.689,56.4287 212.5,56.5 Z"/></g>
<g><path style="opacity:0.858" fill="#fcfcfc" d="M 242.5,41.5 C 245.119,41.2317 247.619,41.565 250,42.5C 251.333,46.5 252.667,50.5 254,54.5C 255.598,50.5388 257.098,46.5388 258.5,42.5C 260.743,41.5258 263.076,41.1924 265.5,41.5C 262.502,50.9916 259.002,60.325 255,69.5C 251.873,72.7098 248.039,74.0431 243.5,73.5C 242.451,69.1694 244.118,67.0027 248.5,67C 249.894,66.044 250.561,64.7106 250.5,63C 247.929,55.7846 245.262,48.6179 242.5,41.5 Z"/></g>
<g><path style="opacity:0.844" fill="#fcfcfc" d="M 332.5,68.5 C 329.561,72.5588 325.728,73.8921 321,72.5C 320.506,70.8659 320.34,69.1992 320.5,67.5C 324.145,68.3203 326.478,66.987 327.5,63.5C 325.431,58.1266 323.264,52.7932 321,47.5C 320.683,49.3008 320.016,49.6341 319,48.5C 318.505,50.4727 318.338,52.4727 318.5,54.5C 313.786,54.1734 309.12,54.5067 304.5,55.5C 304.855,56.5223 305.522,57.189 306.5,57.5C 306.842,58.3382 307.508,58.6716 308.5,58.5C 308.735,59.0967 309.235,59.4301 310,59.5C 312.432,59.2372 314.432,58.2372 316,56.5C 317.487,58.272 317.82,60.272 317,62.5C 311.786,65.188 306.619,65.0213 301.5,62C 296.019,55.389 296.353,49.0556 302.5,43C 307.363,40.6709 311.863,41.1709 316,44.5C 318.984,41.8999 322.484,40.8999 326.5,41.5C 327.309,46.0938 328.809,50.4271 331,54.5C 332.276,50.1768 333.442,45.8435 334.5,41.5C 337.187,41.3359 339.854,41.5026 342.5,42C 338.746,50.6746 335.413,59.508 332.5,68.5 Z M 310.5,47.5 C 308.352,47.3894 308.019,48.056 309.5,49.5C 304.978,51.3139 303.978,50.4806 306.5,47C 308.066,46.235 309.399,46.4017 310.5,47.5 Z"/></g>
<g><path style="opacity:0.798" fill="#fbfbfc" d="M 373.5,41.5 C 383.34,40.3421 388.007,44.6754 387.5,54.5C 381.402,54.1739 380.735,54.8405 385.5,56.5C 387.713,62.4682 385.546,65.1348 379,64.5C 374.125,64.5541 370.458,62.5541 368,58.5C 365.959,51.3512 367.792,45.6845 373.5,41.5 Z M 376.5,47.5 C 376.577,48.7498 377.244,49.5831 378.5,50C 377.056,50.7805 375.723,50.6139 374.5,49.5C 374.855,48.4777 375.522,47.811 376.5,47.5 Z M 379.5,47.5 C 381.085,48.0024 381.585,49.0024 381,50.5C 379.961,49.7562 379.461,48.7562 379.5,47.5 Z M 377.5,58.5 C 375.088,58.3059 374.088,56.9726 374.5,54.5C 375.873,54.3433 377.207,54.51 378.5,55C 377.663,56.0113 377.33,57.1779 377.5,58.5 Z"/></g>
<g><path style="opacity:0.838" fill="#fdfcfd" d="M 391.5,41.5 C 394.325,41.1616 396.492,42.1616 398,44.5C 400.196,41.8748 403.03,40.8748 406.5,41.5C 406.5,43.5 406.5,45.5 406.5,47.5C 403.801,47.4661 401.301,48.1328 399,49.5C 398.501,54.1548 398.334,58.8215 398.5,63.5C 396.167,63.5 393.833,63.5 391.5,63.5C 391.5,56.1667 391.5,48.8333 391.5,41.5 Z"/></g>
<g><path style="opacity:1" fill="#edfdfc" d="M 89.5,47.5 C 82.825,47.6663 76.1583,47.4996 69.5,47C 68.363,41.918 68.1963,36.7513 69,31.5C 69.1762,35.6877 69.6762,39.6877 70.5,43.5C 75.8333,43.5 81.1667,43.5 86.5,43.5C 86.8025,38.57 86.4692,33.7367 85.5,29C 80.3158,28.1837 75.3158,28.3503 70.5,29.5C 68.9519,29.1788 68.2852,28.1788 68.5,26.5C 75.1303,25.4536 81.797,25.2869 88.5,26C 89.4799,33.0787 89.8132,40.2454 89.5,47.5 Z"/></g>
<g><path style="opacity:1" fill="#78d5b4" d="M 76.5,34.5 C 77.8333,34.5 79.1667,34.5 80.5,34.5C 80.5,35.8333 80.5,37.1667 80.5,38.5C 79.1667,38.5 77.8333,38.5 76.5,38.5C 76.5,37.1667 76.5,35.8333 76.5,34.5 Z"/></g>
<g><path style="opacity:0.004" fill="#000000" d="M 478.5,45.5 C 479.833,46.1667 479.833,46.1667 478.5,45.5 Z"/></g>
<g><path style="opacity:1" fill="#10dc99" d="M 49.5,22.5 C 63.0065,22.8126 76.3398,23.4792 89.5,24.5C 81.747,24.201 74.0804,24.5343 66.5,25.5C 65.8333,25.5 65.1667,25.5 64.5,25.5C 56.7347,24.188 49.0681,24.188 41.5,25.5C 40.188,33.0681 40.188,40.7347 41.5,48.5C 41.5,49.1667 41.5,49.8333 41.5,50.5C 41.5,51.1667 41.1667,51.5 40.5,51.5C 39.6618,51.8417 39.3284,52.5084 39.5,53.5C 38.6724,59.3193 38.1724,65.3193 38,71.5C 36.1733,72.6587 34.5067,73.992 33,75.5C 32.6174,74.944 32.1174,74.6107 31.5,74.5C 28.9788,75.7504 26.6455,75.4171 24.5,73.5C 23.8333,72.5 23.1667,71.5 22.5,70.5C 23.0431,70.44 23.3764,70.1067 23.5,69.5C 22.3333,66.5 21.1667,63.5 20,60.5C 19.2953,52.1389 19.4619,43.8056 20.5,35.5C 20.8369,31.164 22.5035,27.4974 25.5,24.5C 24.3666,27.2709 23.3666,30.1042 22.5,33C 23.2616,35.4291 24.7616,37.2624 27,38.5C 27.5396,36.8654 27.0396,35.5321 25.5,34.5C 27.8433,33.2747 29.6766,33.9414 31,36.5C 32.4381,35.0997 33.2714,33.433 33.5,31.5C 35.143,31.4802 36.4763,32.1468 37.5,33.5C 37.0811,24.9165 41.0811,21.2499 49.5,22.5 Z"/></g>
<g><path style="opacity:1" fill="#d4fdf5" d="M 89.5,50.5 C 91.0234,52.5857 90.69,54.2524 88.5,55.5C 81.1667,55.5 73.8333,55.5 66.5,55.5C 65.2721,53.9902 65.2721,52.4902 66.5,51C 74.1594,50.5003 81.8261,50.3336 89.5,50.5 Z"/></g>
<g><path style="opacity:1" fill="#d2fffb" d="M 41.5,50.5 C 48.8409,50.3337 56.1742,50.5003 63.5,51C 64.8333,58.6667 64.8333,66.3333 63.5,74C 55.9882,74.8218 48.6549,74.6552 41.5,73.5C 40.5084,66.3524 40.175,59.0191 40.5,51.5C 41.1667,51.5 41.5,51.1667 41.5,50.5 Z"/></g>
<g><path style="opacity:0.02" fill="#fcfaff" d="M 308.5,58.5 C 308.158,57.6618 307.492,57.3284 306.5,57.5C 306.62,56.4138 307.287,55.7472 308.5,55.5C 315.131,56.5114 315.131,57.5114 308.5,58.5 Z"/></g>
<g><path style="opacity:0.004" fill="#000000" d="M 486.5,58.5 C 487.833,59.1667 487.833,59.1667 486.5,58.5 Z"/></g>
<g><path style="opacity:0.004" fill="#000000" d="M 400.5,59.5 C 401.833,60.1667 401.833,60.1667 400.5,59.5 Z"/></g>
<g><path style="opacity:0.004" fill="#000000" d="M 402.5,59.5 C 403.833,60.1667 403.833,60.1667 402.5,59.5 Z"/></g>
<g><path style="opacity:0.004" fill="#000000" d="M 279.5,61.5 C 280.833,62.1667 280.833,62.1667 279.5,61.5 Z"/></g>
<g><path style="opacity:0.004" fill="#000000" d="M 258.5,63.5 C 259.833,64.1667 259.833,64.1667 258.5,63.5 Z"/></g>
<g><path style="opacity:0.004" fill="#000000" d="M 141.5,65.5 C 142.833,66.1667 142.833,66.1667 141.5,65.5 Z"/></g>
<g><path style="opacity:0.004" fill="#000000" d="M 199.5,65.5 C 200.833,66.1667 200.833,66.1667 199.5,65.5 Z"/></g>
<g><path style="opacity:0.592" fill="#29af88" d="M 20.5,35.5 C 19.4619,43.8056 19.2953,52.1389 20,60.5C 21.1667,63.5 22.3333,66.5 23.5,69.5C 23.3764,70.1067 23.0431,70.44 22.5,70.5C 16.9899,58.9106 16.3232,47.244 20.5,35.5 Z"/></g>
<g><path style="opacity:1" fill="#0fd094" d="M 108.5,30.5 C 115.167,43.1667 115.167,55.8333 108.5,68.5C 107.685,69.4293 106.852,70.4293 106,71.5C 105.577,70.0439 104.744,69.5439 103.5,70C 104.406,71.6995 104.739,73.5328 104.5,75.5C 102.133,74.8363 100.133,73.503 98.5,71.5C 97.6667,72.5 96.8333,73.5 96,74.5C 95.7508,73.376 95.2508,72.376 94.5,71.5C 93.8933,71.6236 93.56,71.9569 93.5,72.5C 92.8333,71.5 92.1667,70.5 91.5,69.5C 91.5858,68.5041 91.2524,67.6708 90.5,67C 86.6425,66.1901 82.9758,66.3567 79.5,67.5C 79.5,67.8333 79.5,68.1667 79.5,68.5C 78.609,69.1098 77.609,69.4431 76.5,69.5C 76.3893,68.8826 76.056,68.3826 75.5,68C 72.5184,67.502 69.5184,67.3354 66.5,67.5C 65.2092,63.3989 65.2092,59.3989 66.5,55.5C 73.8333,55.5 81.1667,55.5 88.5,55.5C 85.8411,55.9174 83.5078,56.9174 81.5,58.5C 78.5525,58.2229 75.7191,58.5562 73,59.5C 72.3162,60.7839 72.4829,61.9505 73.5,63C 76.7603,63.7835 79.9269,63.6168 83,62.5C 83.5791,61.0715 83.4124,59.7382 82.5,58.5C 83.9125,60.4961 85.2459,62.6628 86.5,65C 92.7805,65.2722 93.7805,63.1055 89.5,58.5C 89.8333,58.1667 90.1667,57.8333 90.5,57.5C 92.6554,59.9895 95.322,61.6561 98.5,62.5C 99.9965,66.3354 100.996,66.3354 101.5,62.5C 104.635,62.1934 107.302,60.8601 109.5,58.5C 110.98,49.0663 110.647,39.7329 108.5,30.5 Z"/></g>
<g><path style="opacity:1" fill="#d3fcf6" d="M 81.5,58.5 C 81.8333,58.5 82.1667,58.5 82.5,58.5C 83.4124,59.7382 83.5791,61.0715 83,62.5C 79.9269,63.6168 76.7603,63.7835 73.5,63C 72.4829,61.9505 72.3162,60.7839 73,59.5C 75.7191,58.5562 78.5525,58.2229 81.5,58.5 Z"/></g>
<g><path style="opacity:0.004" fill="#000000" d="M 295.5,67.5 C 296.833,68.1667 296.833,68.1667 295.5,67.5 Z"/></g>
<g><path style="opacity:0.004" fill="#000000" d="M 416.5,67.5 C 417.833,68.1667 417.833,68.1667 416.5,67.5 Z"/></g>
<g><path style="opacity:0.004" fill="#000000" d="M 332.5,68.5 C 333.833,69.1667 333.833,69.1667 332.5,68.5 Z"/></g>
<g><path style="opacity:0.004" fill="#000000" d="M 462.5,71.5 C 463.833,72.1667 463.833,72.1667 462.5,71.5 Z"/></g>
<g><path style="opacity:0.004" fill="#000000" d="M 183.5,73.5 C 184.833,74.1667 184.833,74.1667 183.5,73.5 Z"/></g>
<g><path style="opacity:0.004" fill="#000000" d="M 120.5,74.5 C 121.833,75.1667 121.833,75.1667 120.5,74.5 Z"/></g>
<g><path style="opacity:0.747" fill="#fbfcfc" d="M 185.5,73.5 C 186.5,73.5 187.5,73.5 188.5,73.5C 188.5,77.8333 188.5,82.1667 188.5,86.5C 181.507,88.0041 178.673,85.3375 180,78.5C 181.396,76.4732 183.062,76.1398 185,77.5C 185.49,76.2068 185.657,74.8734 185.5,73.5 Z M 183.5,79.5 C 185.104,80.287 185.771,81.6203 185.5,83.5C 184.5,83.5 183.5,83.5 182.5,83.5C 182.433,82.0413 182.766,80.7079 183.5,79.5 Z"/></g>
<g><path style="opacity:0.741" fill="#fdfcfc" d="M 216.5,73.5 C 217.5,73.5 218.5,73.5 219.5,73.5C 219.48,77.5873 219.647,81.5873 220,85.5C 212.221,88.3894 209.554,85.7228 212,77.5C 213.356,76.6198 214.856,76.2865 216.5,76.5C 216.5,75.5 216.5,74.5 216.5,73.5 Z M 214.5,79.5 C 215.586,79.62 216.253,80.2867 216.5,81.5C 216.167,82.1667 215.833,82.8333 215.5,83.5C 214.571,82.3112 214.238,80.9778 214.5,79.5 Z"/></g>
<g><path style="opacity:0.004" fill="#000000" d="M 228.5,74.5 C 229.833,75.1667 229.833,75.1667 228.5,74.5 Z"/></g>
<g><path style="opacity:0.715" fill="#fbfbfb" d="M 250.5,73.5 C 256.195,73.6254 257.862,76.292 255.5,81.5C 256.167,82.8333 256.833,84.1667 257.5,85.5C 256.635,86.5827 255.635,86.7494 254.5,86C 252.332,81.3009 251.332,81.4676 251.5,86.5C 250.178,86.67 249.011,86.3366 248,85.5C 247.501,81.8484 247.335,78.1817 247.5,74.5C 248.791,74.7373 249.791,74.404 250.5,73.5 Z M 251.5,77.5 C 254.001,77.5109 254.168,78.1776 252,79.5C 251.536,78.9056 251.369,78.2389 251.5,77.5 Z"/></g>
<g><path style="opacity:0.004" fill="#000000" d="M 438.5,74.5 C 439.833,75.1667 439.833,75.1667 438.5,74.5 Z"/></g>
<g><path style="opacity:0.89" fill="#f8f9f9" d="M 126.5,73.5 C 129.588,73.1966 131.254,74.5299 131.5,77.5C 129.5,77.5 127.5,77.5 125.5,77.5C 125.5,79.5 125.5,81.5 125.5,83.5C 126.552,83.6495 127.552,83.4828 128.5,83C 127.027,82.2904 126.36,81.1238 126.5,79.5C 128.167,79.5 129.833,79.5 131.5,79.5C 131.5,81.8333 131.5,84.1667 131.5,86.5C 124.223,87.7213 121.056,84.7213 122,77.5C 122.907,75.3909 124.407,74.0576 126.5,73.5 Z"/></g>
<g><path style="opacity:0.685" fill="#fbfbfb" d="M 239.5,73.5 C 246.564,75.14 248.23,79.14 244.5,85.5C 245.167,86.5 245.833,87.5 246.5,88.5C 245.833,88.8333 245.167,89.1667 244.5,89.5C 242.292,88.1368 239.959,86.9701 237.5,86C 233.108,80.814 233.774,76.6473 239.5,73.5 Z M 239.5,76.5 C 242.989,77.8073 243.989,80.1406 242.5,83.5C 241.167,83.5 239.833,83.5 238.5,83.5C 238.298,81.0504 238.631,78.717 239.5,76.5 Z"/></g>
<g><path style="opacity:1" fill="#05cf94" d="M 39.5,53.5 C 39.5,61.1667 39.5,68.8333 39.5,76.5C 45.8421,76.3338 52.1754,76.5005 58.5,77C 57.782,78.9874 56.782,80.8208 55.5,82.5C 56.1667,82.8333 56.8333,83.1667 57.5,83.5C 60.0853,82.2456 62.752,81.0789 65.5,80C 64.1667,78 64.1667,76 65.5,74C 68.2017,73.3934 70.8684,73.5601 73.5,74.5C 75.1043,74.0609 76.6043,73.3943 78,72.5C 82.003,74.6199 86.1697,74.9532 90.5,73.5C 91.2458,72.2638 91.5792,70.9305 91.5,69.5C 92.1667,70.5 92.8333,71.5 93.5,72.5C 93.1534,75.5585 93.82,78.5585 95.5,81.5C 97.1769,83.0677 95.6769,82.7344 91,80.5C 89.6315,81.7026 88.1315,82.7026 86.5,83.5C 86.1667,83.1667 85.8333,82.8333 85.5,82.5C 86.5,81.6667 87.5,80.8333 88.5,80C 85.6655,77.816 84.3322,78.316 84.5,81.5C 76.6115,80.9433 68.9448,81.9433 61.5,84.5C 60.2402,85.3816 59.0736,86.3816 58,87.5C 55.9298,87.8372 53.9298,87.1705 52,85.5C 50.6667,86.1667 49.3333,86.8333 48,87.5C 45.2442,86.3141 42.5776,84.9808 40,83.5C 38.1598,84.8331 37.6598,84.6665 38.5,83C 34.7418,81.2985 32.4084,78.4652 31.5,74.5C 32.1174,74.6107 32.6174,74.944 33,75.5C 34.5067,73.992 36.1733,72.6587 38,71.5C 38.1724,65.3193 38.6724,59.3193 39.5,53.5 Z"/></g>
<g><path style="opacity:0.805" fill="#fafbfa" d="M 143.5,76.5 C 145.152,77.8067 146.818,77.8067 148.5,76.5C 150.029,76.5288 151.196,77.1955 152,78.5C 152.497,81.146 152.664,83.8127 152.5,86.5C 151.022,86.762 149.689,86.4287 148.5,85.5C 148.433,83.5756 148.1,81.5756 147.5,79.5C 146.526,81.7427 146.192,84.076 146.5,86.5C 145.5,86.5 144.5,86.5 143.5,86.5C 143.5,83.1667 143.5,79.8333 143.5,76.5 Z"/></g>
<g><path style="opacity:0.711" fill="#fbfbfb" d="M 155.5,76.5 C 159.423,75.9602 161.756,77.6268 162.5,81.5C 160.577,82.3078 158.577,82.8078 156.5,83C 158.134,83.4935 159.801,83.6602 161.5,83.5C 161.5,84.5 161.5,85.5 161.5,86.5C 153.44,86.809 151.44,83.4756 155.5,76.5 Z"/></g>
<g><path style="opacity:0.749" fill="#fafbfa" d="M 163.5,76.5 C 165.045,77.5804 166.545,77.5804 168,76.5C 169.152,78.5117 170.318,78.6783 171.5,77C 174.025,76.1041 176.192,76.6041 178,78.5C 178.497,81.146 178.664,83.8127 178.5,86.5C 175.753,86.8134 173.086,86.48 170.5,85.5C 168.997,81.2147 170.663,79.3814 175.5,80C 172.571,79.2228 169.737,79.3895 167,80.5C 166.505,82.4727 166.338,84.4727 166.5,86.5C 165.5,86.5 164.5,86.5 163.5,86.5C 163.5,83.1667 163.5,79.8333 163.5,76.5 Z"/></g>
<g><path style="opacity:0.727" fill="#fcfcfc" d="M 192.5,76.5 C 197.989,76.504 199.822,79.1707 198,84.5C 192,88.1667 189.333,86.5 190,79.5C 190.698,78.3094 191.531,77.3094 192.5,76.5 Z M 193.5,79.5 C 194.586,79.62 195.253,80.2867 195.5,81.5C 194.696,83.9573 193.696,83.9573 192.5,81.5C 192.863,80.8165 193.196,80.1499 193.5,79.5 Z"/></g>
<g><path style="opacity:0.615" fill="#fbfcfc" d="M 199.5,76.5 C 201.833,77.8333 204.167,77.8333 206.5,76.5C 206.539,78.3588 205.706,79.6921 204,80.5C 203.505,82.4727 203.338,84.4727 203.5,86.5C 202.167,86.5 200.833,86.5 199.5,86.5C 199.5,83.1667 199.5,79.8333 199.5,76.5 Z"/></g>
<g><path style="opacity:0.739" fill="#fcfcfc" d="M 223.5,76.5 C 228.168,75.8394 230.168,77.8394 229.5,82.5C 222.833,82.8333 222.833,83.1667 229.5,83.5C 229.5,84.5 229.5,85.5 229.5,86.5C 221.665,86.7778 219.665,83.4445 223.5,76.5 Z"/></g>
<g><path style="opacity:0.004" fill="#000000" d="M 443.5,77.5 C 444.833,78.1667 444.833,78.1667 443.5,77.5 Z"/></g>
<g><path style="opacity:1" fill="#10c791" d="M 108.5,68.5 C 107.648,71.2234 106.481,73.89 105,76.5C 86.304,98.9055 64.1373,103.072 38.5,89C 32.5733,84.9099 27.9066,79.7432 24.5,73.5C 26.6455,75.4171 28.9788,75.7504 31.5,74.5C 32.4084,78.4652 34.7418,81.2985 38.5,83C 37.6598,84.6665 38.1598,84.8331 40,83.5C 42.5776,84.9808 45.2442,86.3141 48,87.5C 49.3333,86.8333 50.6667,86.1667 52,85.5C 53.9298,87.1705 55.9298,87.8372 58,87.5C 59.0736,86.3816 60.2402,85.3816 61.5,84.5C 68.9448,81.9433 76.6115,80.9433 84.5,81.5C 84.3322,78.316 85.6655,77.816 88.5,80C 87.5,80.8333 86.5,81.6667 85.5,82.5C 85.8333,82.8333 86.1667,83.1667 86.5,83.5C 88.1315,82.7026 89.6315,81.7026 91,80.5C 95.6769,82.7344 97.1769,83.0677 95.5,81.5C 93.82,78.5585 93.1534,75.5585 93.5,72.5C 93.56,71.9569 93.8933,71.6236 94.5,71.5C 95.2508,72.376 95.7508,73.376 96,74.5C 96.8333,73.5 97.6667,72.5 98.5,71.5C 100.133,73.503 102.133,74.8363 104.5,75.5C 104.739,73.5328 104.406,71.6995 103.5,70C 104.744,69.5439 105.577,70.0439 106,71.5C 106.852,70.4293 107.685,69.4293 108.5,68.5 Z"/></g>
<g><path style="opacity:0.786" fill="#fafbfb" d="M 135.5,76.5 C 139.423,75.9602 141.756,77.6268 142.5,81.5C 140.577,82.3078 138.577,82.8078 136.5,83C 138.134,83.4935 139.801,83.6602 141.5,83.5C 141.5,84.5 141.5,85.5 141.5,86.5C 133.44,86.809 131.44,83.4756 135.5,76.5 Z"/></g>
<g><path style="opacity:0.004" fill="#000000" d="M 480.5,79.5 C 481.833,80.1667 481.833,80.1667 480.5,79.5 Z"/></g>
<g><path style="opacity:1" fill="#2cc795" d="M 64.5,25.5 C 65.1667,25.5 65.8333,25.5 66.5,25.5C 66.1858,33.0871 66.5192,40.5871 67.5,48C 74.8258,48.4997 82.1591,48.6663 89.5,48.5C 89.5,49.1667 89.5,49.8333 89.5,50.5C 81.8261,50.3336 74.1594,50.5003 66.5,51C 65.2721,52.4902 65.2721,53.9902 66.5,55.5C 65.2092,59.3989 65.2092,63.3989 66.5,67.5C 65.2721,69.0098 65.2721,70.5098 66.5,72C 69.5,72.6667 72.5,72.6667 75.5,72C 76.2524,71.3292 76.5858,70.4959 76.5,69.5C 77.609,69.4431 78.609,69.1098 79.5,68.5C 79.33,69.8221 79.6634,70.9887 80.5,72C 83.5,72.6667 86.5,72.6667 89.5,72C 90.8333,70.6667 90.8333,69.3333 89.5,68C 86.1832,67.5017 82.8499,67.335 79.5,67.5C 82.9758,66.3567 86.6425,66.1901 90.5,67C 91.2524,67.6708 91.5858,68.5041 91.5,69.5C 91.5792,70.9305 91.2458,72.2638 90.5,73.5C 86.1697,74.9532 82.003,74.6199 78,72.5C 76.6043,73.3943 75.1043,74.0609 73.5,74.5C 70.8684,73.5601 68.2017,73.3934 65.5,74C 64.1667,76 64.1667,78 65.5,80C 62.752,81.0789 60.0853,82.2456 57.5,83.5C 56.8333,83.1667 56.1667,82.8333 55.5,82.5C 56.782,80.8208 57.782,78.9874 58.5,77C 52.1754,76.5005 45.8421,76.3338 39.5,76.5C 39.5,68.8333 39.5,61.1667 39.5,53.5C 39.3284,52.5084 39.6618,51.8417 40.5,51.5C 40.175,59.0191 40.5084,66.3524 41.5,73.5C 48.6549,74.6552 55.9882,74.8218 63.5,74C 64.8333,66.3333 64.8333,58.6667 63.5,51C 56.1742,50.5003 48.8409,50.3337 41.5,50.5C 41.5,49.8333 41.5,49.1667 41.5,48.5C 49.0871,48.8142 56.5871,48.4808 64,47.5C 64.4997,40.1742 64.6663,32.8409 64.5,25.5 Z"/></g>
<g><path style="opacity:1" fill="#d2fef6" d="M 79.5,67.5 C 82.8499,67.335 86.1832,67.5017 89.5,68C 90.8333,69.3333 90.8333,70.6667 89.5,72C 86.5,72.6667 83.5,72.6667 80.5,72C 79.6634,70.9887 79.33,69.8221 79.5,68.5C 79.5,68.1667 79.5,67.8333 79.5,67.5 Z"/></g>
<g><path style="opacity:1" fill="#d7fef8" d="M 66.5,67.5 C 69.5184,67.3354 72.5184,67.502 75.5,68C 76.056,68.3826 76.3893,68.8826 76.5,69.5C 76.5858,70.4959 76.2524,71.3292 75.5,72C 72.5,72.6667 69.5,72.6667 66.5,72C 65.2721,70.5098 65.2721,69.0098 66.5,67.5 Z"/></g>
<g><path style="opacity:1" fill="#ebfcfa" d="M 41.5,73.5 C 41.2049,66.7743 41.5383,60.1077 42.5,53.5C 49.1335,52.5033 55.8002,52.17 62.5,52.5C 62.5,59.5 62.5,66.5 62.5,73.5C 55.5,73.5 48.5,73.5 41.5,73.5 Z"/></g>
<g><path style="opacity:1" fill="#88d0b8" d="M 44.5,55.5 C 49.5,55.5 54.5,55.5 59.5,55.5C 59.5,60.5 59.5,65.5 59.5,70.5C 54.5,70.5 49.5,70.5 44.5,70.5C 44.5,65.5 44.5,60.5 44.5,55.5 Z"/></g>
<g><path style="opacity:1" fill="#e3fbf8" d="M 47.5,56.5 C 51.1064,56.2108 54.6064,56.5442 58,57.5C 61,68.1667 57.3333,71.5 47,67.5C 46.2446,63.7446 46.4113,60.0779 47.5,56.5 Z"/></g>
<g><path style="opacity:0.004" fill="#000000" d="M 321.5,80.5 C 322.833,81.1667 322.833,81.1667 321.5,80.5 Z"/></g>
<g><path style="opacity:0.004" fill="#000000" d="M 463.5,82.5 C 464.833,83.1667 464.833,83.1667 463.5,82.5 Z"/></g>
<g><path style="opacity:0.004" fill="#000000" d="M 457.5,87.5 C 458.833,88.1667 458.833,88.1667 457.5,87.5 Z"/></g>
<g><path style="opacity:0.004" fill="#000000" d="M 276.5,88.5 C 277.833,89.1667 277.833,89.1667 276.5,88.5 Z"/></g>
<g><path style="opacity:0.004" fill="#000000" d="M 176.5,89.5 C 177.833,90.1667 177.833,90.1667 176.5,89.5 Z"/></g>
<g><path style="opacity:0.004" fill="#000000" d="M 390.5,89.5 C 391.833,90.1667 391.833,90.1667 390.5,89.5 Z"/></g>
<g><path style="opacity:0.004" fill="#000000" d="M 276.5,91.5 C 277.833,92.1667 277.833,92.1667 276.5,91.5 Z"/></g>
<g><path style="opacity:0.004" fill="#000000" d="M 401.5,92.5 C 402.833,93.1667 402.833,93.1667 401.5,92.5 Z"/></g>
<g><path style="opacity:0.004" fill="#000000" d="M 12.5,93.5 C 13.8333,94.1667 13.8333,94.1667 12.5,93.5 Z"/></g>
<g><path style="opacity:0.004" fill="#000000" d="M 470.5,94.5 C 471.833,95.1667 471.833,95.1667 470.5,94.5 Z"/></g>
<g><path style="opacity:0.004" fill="#000000" d="M 346.5,96.5 C 347.833,97.1667 347.833,97.1667 346.5,96.5 Z"/></g>
<g><path style="opacity:0.004" fill="#000000" d="M 445.5,96.5 C 446.833,97.1667 446.833,97.1667 445.5,96.5 Z"/></g>
<g><path style="opacity:0.004" fill="#000000" d="M 200.5,97.5 C 201.833,98.1667 201.833,98.1667 200.5,97.5 Z"/></g>
<g><path style="opacity:0.004" fill="#000000" d="M 313.5,97.5 C 314.833,98.1667 314.833,98.1667 313.5,97.5 Z"/></g>
</svg>
